<svg width="24" height="24" viewBox="0 0 24 24" fill="none" xmlns="http://www.w3.org/2000/svg">
<path fill-rule="evenodd" clip-rule="evenodd" d="M6.88104 5.17633C6.70229 4.96585 6.38675 4.94013 6.17627 5.11889C2.37594 8.34635 1.91154 14.0435 5.13901 17.8438C5.45605 18.2172 5.80295 18.5641 6.17627 18.8811C6.38675 19.0599 6.70229 19.0341 6.88104 18.8237C7.05979 18.6132 7.03407 18.2976 6.82359 18.1189C6.49162 17.837 6.18315 17.5285 5.90123 17.1965C3.03126 13.8172 3.44422 8.75107 6.82359 5.8811C7.03407 5.70235 7.05979 5.38682 6.88104 5.17633ZM8.8354 16.1292C9.04016 16.3145 9.05596 16.6307 8.87068 16.8355C8.68541 17.0402 8.36922 17.056 8.16446 16.8707C8.00233 16.7241 7.84763 16.5694 7.70094 16.4072C5.26689 13.7172 5.47442 9.56329 8.16446 7.12924C8.36922 6.94396 8.68541 6.95976 8.87068 7.16452C9.05596 7.36929 9.04016 7.68547 8.8354 7.87075C6.55488 9.93424 6.37895 13.4558 8.44244 15.7363C8.56681 15.8737 8.69796 16.0049 8.8354 16.1292ZM8.99993 12C8.99993 13.6568 10.3431 15 11.9999 15C13.6568 15 14.9999 13.6568 14.9999 12C14.9999 10.3431 13.6568 8.99999 11.9999 8.99999C10.3431 8.99999 8.99993 10.3431 8.99993 12ZM13.9999 12C13.9999 13.1046 13.1045 14 11.9999 14C10.8954 14 9.99993 13.1046 9.99993 12C9.99993 10.8954 10.8954 9.99999 11.9999 9.99999C13.1045 9.99999 13.9999 10.8954 13.9999 12ZM15.1658 7.87198C14.9604 7.68745 14.9434 7.37132 15.1279 7.16588C15.3125 6.96044 15.6286 6.94349 15.834 7.12801C18.5248 9.54481 18.7468 13.6853 16.33 16.376C16.1737 16.5501 16.0081 16.7156 15.834 16.872C15.6286 17.0565 15.3125 17.0395 15.1279 16.8341C14.9434 16.6287 14.9604 16.3125 15.1658 16.128C15.3133 15.9955 15.4536 15.8553 15.5861 15.7078C17.6338 13.4279 17.4457 9.91972 15.1658 7.87198ZM17.119 5.17613C16.9401 5.38652 16.9657 5.70207 17.1761 5.88093C20.5555 8.75408 20.966 13.8228 18.0928 17.2023C17.8125 17.5321 17.5059 17.8387 17.1761 18.1191C16.9657 18.2979 16.9401 18.6135 17.119 18.8239C17.2979 19.0342 17.6134 19.0598 17.8238 18.8809C18.1947 18.5656 18.5394 18.2209 18.8547 17.85C22.0856 14.0498 21.624 8.34994 17.8238 5.11906C17.6134 4.94019 17.2979 4.96575 17.119 5.17613Z" fill="black"/>
</svg>
