<svg width="24" height="24" viewBox="0 0 24 24" fill="none" xmlns="http://www.w3.org/2000/svg">
<path fill-rule="evenodd" clip-rule="evenodd" d="M9.02975 3.3437C10.9834 2.88543 13.0166 2.88543 14.9703 3.3437C17.7916 4.00549 19.9945 6.20842 20.6563 9.02975C21.1146 10.9834 21.1146 13.0166 20.6563 14.9703C19.9945 17.7916 17.7916 19.9945 14.9703 20.6563C13.0166 21.1146 10.9834 21.1146 9.02975 20.6563C6.20842 19.9945 4.0055 17.7916 3.3437 14.9703C2.88543 13.0166 2.88543 10.9834 3.3437 9.02974C4.0055 6.20841 6.20842 4.00549 9.02975 3.3437ZM12 10.0854C12.5287 10.0854 12.9573 9.65681 12.9573 9.12812C12.9573 8.59942 12.5287 8.17083 12 8.17083C11.4713 8.17083 11.0427 8.59942 11.0427 9.12812C11.0427 9.65681 11.4713 10.0854 12 10.0854ZM12 10.8034C12.3965 10.8034 12.7179 11.1248 12.7179 11.5213V15.3505C12.7179 15.747 12.3965 16.0684 12 16.0684C11.6035 16.0684 11.282 15.747 11.282 15.3505V11.5213C11.282 11.1248 11.6035 10.8034 12 10.8034Z" fill="#C94515"/>
</svg>
