<svg width="512" height="512" viewBox="0 0 512 512" fill="none" xmlns="http://www.w3.org/2000/svg">
<path d="M107 320H62C48.1929 320 37 331.193 37 345V423C37 436.807 48.1929 448 62 448H107C120.807 448 132 436.807 132 423V345C132 331.193 120.807 320 107 320Z" fill="black"/>
<path d="M278 191H233C219.193 191 208 202.193 208 216V423C208 436.807 219.193 448 233 448H278C291.807 448 303 436.807 303 423V216C303 202.193 291.807 191 278 191Z" fill="black"/>
<path d="M449 63H404C390.193 63 379 74.1929 379 88V423C379 436.807 390.193 448 404 448H449C462.807 448 474 436.807 474 423V88C474 74.1929 462.807 63 449 63Z" fill="black" fill-opacity="0.25"/>
</svg>
