<svg width="24" height="24" viewBox="0 0 24 24" fill="none" xmlns="http://www.w3.org/2000/svg">
<path fill-rule="evenodd" clip-rule="evenodd" d="M8 9.25469V6C8 3.79086 9.79086 2 12 2C14.2091 2 16 3.79086 16 6V9.25469C17.8135 10.5196 19 12.6213 19 15C19 18.866 15.866 22 12 22C8.13401 22 5 18.866 5 15C5 12.6213 6.18652 10.5196 8 9.25469ZM15 8.67363V6C15 4.34315 13.6569 3 12 3C10.3431 3 9 4.34315 9 6V8.67363C9.90926 8.24169 10.9264 8 12 8C13.0736 8 14.0907 8.24169 15 8.67363ZM18 15C18 18.3137 15.3137 21 12 21C8.68629 21 6 18.3137 6 15C6 11.6863 8.68629 9 12 9C15.3137 9 18 11.6863 18 15ZM11 14V14.382C11 15.0396 11.1531 15.6882 11.4472 16.2764L11.7236 16.8292C11.776 16.9339 11.883 17 12 17C12.117 17 12.224 16.9339 12.2764 16.8292L12.5528 16.2764C12.8469 15.6882 13 15.0396 13 14.382V14C13 13.4477 12.5523 13 12 13C11.4477 13 11 13.4477 11 14ZM12 12C10.8954 12 10 12.8954 10 14V14.382C10 15.1948 10.1893 15.9965 10.5528 16.7236L10.8292 17.2764C11.0509 17.7199 11.5042 18 12 18C12.4958 18 12.9491 17.7199 13.1708 17.2764L13.4472 16.7236C13.8107 15.9965 14 15.1948 14 14.382V14C14 12.8954 13.1046 12 12 12Z" fill="black"/>
</svg>
