<svg width="24" height="24" viewBox="0 0 24 24" fill="none" xmlns="http://www.w3.org/2000/svg">
<path fill-rule="evenodd" clip-rule="evenodd" d="M12.0076 2C9.79426 2 8 3.79426 8 6.0076V12.0308C8 14.2441 9.79426 16.0384 12.0076 16.0384C14.2209 16.0384 16.0152 14.2441 16.0152 12.0308V6.0076C16.0152 3.79426 14.2209 2 12.0076 2ZM9 12.0308V6.0076C9 4.34655 10.3465 3 12.0076 3C13.6687 3 15.0152 4.34655 15.0152 6.0076V12.0308C15.0152 13.6919 13.6687 15.0384 12.0076 15.0384C10.3465 15.0384 9 13.6919 9 12.0308ZM13 18.9291V21H11V18.9291C11.3266 18.9758 11.6605 19 12 19C12.3395 19 12.6734 18.9758 13 18.9291ZM10 21V18.7101C7.10851 17.8496 5 15.171 5 12V11.5C5 11.2239 5.22386 11 5.5 11C5.77614 11 6 11.2239 6 11.5V12C6 15.3137 8.68629 18 12 18C15.3137 18 18 15.3137 18 12V11.5C18 11.2239 18.2239 11 18.5 11C18.7761 11 19 11.2239 19 11.5V12C19 15.171 16.8915 17.8496 14 18.7101V21H16.5C16.7761 21 17 21.2239 17 21.5C17 21.7761 16.7761 22 16.5 22H7.5C7.22386 22 7 21.7761 7 21.5C7 21.2239 7.22386 21 7.5 21H10Z" fill="black"/>
</svg>
