<svg width="24" height="24" viewBox="0 0 24 24" fill="none" xmlns="http://www.w3.org/2000/svg">
<g clip-path="url(#clip0_144_3930)">
<path d="M12.4498 15.6323L12.5562 16.3747L12.5562 16.3747L12.4498 15.6323ZM11.559 15.6323L11.6655 14.8899L11.6655 14.8899L11.559 15.6323ZM11.5523 3.03274L11.4443 2.29056L11.4443 2.29056L11.5523 3.03274ZM12.4564 3.03274L12.5644 2.29056L12.5644 2.29056L12.4564 3.03274ZM7.87983 11.9127L7.13784 12.022L7.87983 11.9127ZM7.88002 6.75693L7.13804 6.64758L7.88002 6.75693ZM16.1263 6.77402L16.8685 6.66576L16.1263 6.77402ZM16.1265 11.8956L15.3844 11.7873L16.1265 11.8956ZM12.5495 15.618L12.4431 14.8756L12.4431 14.8756L12.5495 15.618ZM12.5532 3.04682L12.4452 3.789L12.4452 3.789L12.5532 3.04682ZM11.4402 3.04907L11.5482 3.79125L11.5482 3.79125L11.4402 3.04907ZM11.4438 15.6158L11.3374 16.3582L11.3374 16.3582L11.4438 15.6158ZM19.75 11.4531C19.75 11.0389 19.4142 10.7031 19 10.7031C18.5858 10.7031 18.25 11.0389 18.25 11.4531H19.75ZM5.75 11.4531C5.75 11.0389 5.41421 10.7031 5 10.7031C4.58579 10.7031 4.25 11.0389 4.25 11.4531H5.75ZM11.25 21C11.25 21.4142 11.5858 21.75 12 21.75C12.4142 21.75 12.75 21.4142 12.75 21H11.25ZM11.5482 3.79125L11.6604 3.77492L11.4443 2.29056L11.3322 2.30689L11.5482 3.79125ZM12.3484 3.77492L12.4452 3.789L12.6612 2.30464L12.5644 2.29056L12.3484 3.77492ZM12.4431 14.8756L12.3433 14.8899L12.5562 16.3747L12.656 16.3604L12.4431 14.8756ZM11.6655 14.8899L11.5503 14.8734L11.3374 16.3582L11.4526 16.3747L11.6655 14.8899ZM12.3433 14.8899C12.1183 14.9221 11.8904 14.9221 11.6655 14.8899L11.4526 16.3747C11.8187 16.4272 12.19 16.4272 12.5562 16.3747L12.3433 14.8899ZM11.6604 3.77492C11.8887 3.74169 12.1201 3.74169 12.3484 3.77492L12.5644 2.29056C12.1929 2.23648 11.8159 2.23648 11.4443 2.29056L11.6604 3.77492ZM8.62181 11.8033C8.38082 10.1681 8.381 8.5016 8.62201 6.86628L7.13804 6.64758C6.87567 8.4278 6.87546 10.2417 7.13784 12.022L8.62181 11.8033ZM15.3842 6.88228C15.6212 8.50721 15.6214 10.1625 15.3844 11.7873L16.8687 12.0039C17.1267 10.2354 17.1265 8.43416 16.8685 6.66576L15.3842 6.88228ZM15.3844 11.7873C15.1449 13.4291 13.9262 14.6629 12.4431 14.8756L12.656 16.3604C14.8486 16.046 16.541 14.2505 16.8687 12.0039L15.3844 11.7873ZM16.8685 6.66576C16.541 4.42095 14.852 2.6235 12.6612 2.30464L12.4452 3.789C13.9274 4.00473 15.1447 5.24066 15.3842 6.88228L16.8685 6.66576ZM8.62201 6.86628C8.8626 5.23377 10.0741 4.0058 11.5482 3.79125L11.3322 2.30689C9.15041 2.62443 7.46741 4.41269 7.13804 6.64758L8.62201 6.86628ZM7.13784 12.022C7.46748 14.2587 9.15376 16.0451 11.3374 16.3582L11.5503 14.8734C10.0752 14.6618 8.86243 13.436 8.62181 11.8033L7.13784 12.022ZM18.25 11.4531C18.25 15.1821 15.4107 18.1285 12 18.1285L12 19.6285C16.3213 19.6285 19.75 15.9259 19.75 11.4531H18.25ZM12 18.1285C8.58929 18.1285 5.75 15.1821 5.75 11.4531H4.25C4.25 15.9259 7.67872 19.6285 12 19.6285L12 18.1285ZM11.25 18.8785V21H12.75V18.8785H11.25Z" fill="#363853"/>
<path d="M382.309 18.4587L381.791 19.0008L381.791 19.0008L382.309 18.4587ZM381.701 17.8768L382.219 17.3347L382.219 17.3347L381.701 17.8768ZM387.796 17.0186L388.523 17.2046L388.523 17.2046L387.796 17.0186ZM380.37 16.6017C379.955 16.6017 379.62 16.9375 379.62 17.3517C379.62 17.766 379.955 18.1017 380.37 18.1017V16.6017ZM389.017 10.1204C388.971 9.70881 388.6 9.4126 388.188 9.45883C387.776 9.50505 387.48 9.87621 387.526 10.2878L389.017 10.1204ZM373.889 13.6275L374.629 13.5027L374.629 13.5026L373.889 13.6275ZM373.881 13.5775L373.141 13.7023L373.141 13.7024L373.881 13.5775ZM373.881 11.0519L373.141 10.927L373.141 10.9271L373.881 11.0519ZM373.889 11.0019L374.629 11.1268L374.629 11.1267L373.889 11.0019ZM381.701 6.75257L382.219 7.29474L382.219 7.29473L381.701 6.75257ZM382.309 6.17073L381.791 5.62856L381.791 5.62857L382.309 6.17073ZM376.801 7.71552L376.566 7.00311L376.566 7.00311L376.801 7.71552ZM376.565 17.6257C376.958 17.7561 377.382 17.5431 377.513 17.15C377.643 16.7568 377.43 16.3324 377.037 16.202L376.565 17.6257ZM389.742 5.03021C390.035 4.73731 390.035 4.26244 389.742 3.96955C389.449 3.67665 388.974 3.67665 388.681 3.96955L389.742 5.03021ZM373.97 18.6805C373.678 18.9734 373.678 19.4483 373.97 19.7412C374.263 20.0341 374.738 20.0341 375.031 19.7412L373.97 18.6805ZM20.5303 5.03033C20.8232 4.73744 20.8232 4.26256 20.5303 3.96967C20.2374 3.67678 19.7626 3.67678 19.4697 3.96967L20.5303 5.03033ZM3.96967 19.4697C3.67678 19.7626 3.67678 20.2374 3.96967 20.5303C4.26256 20.8232 4.73744 20.8232 5.03033 20.5303L3.96967 19.4697ZM382.828 17.9165L382.219 17.3347L381.182 18.419L381.791 19.0008L382.828 17.9165ZM381.791 19.0008C383.969 21.0824 387.77 20.1463 388.523 17.2046L387.07 16.8325C386.622 18.5792 384.239 19.266 382.828 17.9165L381.791 19.0008ZM380.37 18.1017C380.683 18.1017 380.975 18.2206 381.182 18.419L382.219 17.3347C381.723 16.8611 381.057 16.6017 380.37 16.6017V18.1017ZM387.526 10.2878C387.772 12.4715 387.62 14.6853 387.07 16.8325L388.523 17.2046C389.118 14.8813 389.283 12.4847 389.017 10.1204L387.526 10.2878ZM379.54 8.02766H380.37V6.52766H379.54V8.02766ZM374.629 13.5026L374.62 13.4526L373.141 13.7024L373.15 13.7525L374.629 13.5026ZM374.62 11.1768L374.629 11.1268L373.15 10.8769L373.141 10.927L374.62 11.1768ZM382.219 7.29473L382.828 6.71289L381.791 5.62857L381.182 6.21041L382.219 7.29473ZM374.62 13.4527C374.493 12.6987 374.493 11.9307 374.62 11.1767L373.141 10.9271C372.986 11.8463 372.986 12.7831 373.141 13.7023L374.62 13.4527ZM377.035 8.42792C377.84 8.16313 378.687 8.02766 379.54 8.02766V6.52766C378.528 6.52766 377.523 6.68821 376.566 7.00311L377.035 8.42792ZM377.037 16.202L377.035 16.2013L376.562 17.625L376.565 17.6257L377.037 16.202ZM377.033 16.2008C375.745 15.776 374.836 14.7287 374.629 13.5027L373.15 13.7524C373.455 15.561 374.781 17.0375 376.564 17.6254L377.033 16.2008ZM380.37 8.02766C381.057 8.02766 381.723 7.76829 382.219 7.29474L381.182 6.2104C380.975 6.40883 380.683 6.52766 380.37 6.52766V8.02766ZM376.566 7.00311C374.782 7.59043 373.455 9.06752 373.15 10.877L374.629 11.1267C374.836 9.90009 375.746 8.85234 377.035 8.42792L376.566 7.00311ZM382.828 6.7129C384.033 5.56098 386.003 5.88865 386.794 7.15094L388.065 6.35419C386.777 4.30017 383.694 3.80966 381.791 5.62856L382.828 6.7129ZM388.681 3.96955L376.268 16.3828L377.329 17.4434L389.742 5.03021L388.681 3.96955ZM376.268 16.3828L373.97 18.6805L375.031 19.7412L377.329 17.4434L376.268 16.3828ZM19.4697 3.96967L3.96967 19.4697L5.03033 20.5303L20.5303 5.03033L19.4697 3.96967Z" fill="#363853"/>
</g>
<defs>
<clipPath id="clip0_144_3930">
<rect width="24" height="24" fill="white"/>
</clipPath>
</defs>
</svg>
