<svg width="24" height="24" viewBox="0 0 24 24" fill="none" xmlns="http://www.w3.org/2000/svg">
<path fill-rule="evenodd" clip-rule="evenodd" d="M20 5.5C20 4.27577 19.12 3.25706 17.9581 3.04188C17.7429 1.87996 16.7242 1 15.5 1H6.5C5.11929 1 4 2.11929 4 3.5V18.5C4 19.7242 4.87996 20.7429 6.04188 20.9581C6.25706 22.12 7.27577 23 8.5 23H17.5C18.8807 23 20 21.8807 20 20.5V5.5ZM17 12H15.5V11.6324C15.5 10.7542 15.0393 9.94046 14.2862 9.48865L13.3163 8.90667C13.7434 8.38833 14 7.72412 14 7C14 5.34315 12.6569 4 11 4C9.34315 4 8 5.34315 8 7C8 7.72412 8.25655 8.38833 8.68373 8.90667L7.71376 9.48865C6.96075 9.94046 6.5 10.7542 6.5 11.6324V12H5V3.5C5 2.67157 5.67157 2 6.5 2H15.5C16.3284 2 17 2.67157 17 3.5V12ZM14.5 11.6324V12H7.5V11.6324C7.5 11.1055 7.77645 10.6172 8.22826 10.3461L9.48684 9.59099C9.93106 9.85098 10.4481 10 11 10C11.5519 10 12.0689 9.85098 12.5132 9.59099L13.7717 10.3461C14.2236 10.6172 14.5 11.1055 14.5 11.6324ZM5 13V18.5C5 19.3284 5.67157 20 6.5 20H15.5C16.3284 20 17 19.3284 17 18.5V13H5ZM7.08535 21C7.29127 21.5826 7.84689 22 8.5 22H17.5C18.3284 22 19 21.3284 19 20.5V5.5C19 4.84689 18.5826 4.29127 18 4.08535V18.5C18 19.8807 16.8807 21 15.5 21H7.08535ZM13 7C13 8.10457 12.1046 9 11 9C9.89543 9 9 8.10457 9 7C9 5.89543 9.89543 5 11 5C12.1046 5 13 5.89543 13 7ZM7.5 16C7.22386 16 7 15.7761 7 15.5C7 15.2239 7.22386 15 7.5 15H14.5C14.7761 15 15 15.2239 15 15.5C15 15.7761 14.7761 16 14.5 16H7.5ZM7 17.5C7 17.7761 7.22386 18 7.5 18H12.5C12.7761 18 13 17.7761 13 17.5C13 17.2239 12.7761 17 12.5 17H7.5C7.22386 17 7 17.2239 7 17.5Z" fill="black"/>
</svg>
