<svg width="24" height="24" viewBox="0 0 24 24" fill="none" xmlns="http://www.w3.org/2000/svg">
<path fill-rule="evenodd" clip-rule="evenodd" d="M4.5 2C3.11929 2 2 3.11929 2 4.5V6.50658C2 15.067 8.93959 22.0066 17.5 22.0066H19.5C20.8807 22.0066 22 20.8873 22 19.5066V16.9415C22 15.8654 21.3114 14.9101 20.2906 14.5698L17.1073 13.5087C16.0378 13.1522 14.862 13.5556 14.2366 14.4937L13.5077 15.5871C13.3826 15.7747 13.1474 15.8554 12.9335 15.7841L11.4081 15.2757C10.161 14.86 9.20422 13.8485 8.85834 12.5803L8.23129 10.2811C8.16146 10.0251 8.30381 9.75911 8.55556 9.67519L9.15811 9.47434C10.2553 9.10861 10.9234 7.999 10.7333 6.85817L10.2717 4.089C10.0708 2.88353 9.02784 2 7.80575 2H4.5ZM3 6.50658V4.5C3 3.67157 3.67157 3 4.5 3H7.80575C8.539 3 9.16479 3.53012 9.28534 4.2534L9.74687 7.02257C9.85611 7.67802 9.47227 8.31553 8.84189 8.52566L8.23933 8.72651C7.48408 8.97826 7.05706 9.77616 7.26652 10.5442L7.89358 12.8434C8.32743 14.4342 9.52761 15.7029 11.0919 16.2243L12.6173 16.7328C13.259 16.9467 13.9645 16.7047 14.3397 16.1418L15.0687 15.0484C15.4439 14.4856 16.1494 14.2435 16.7911 14.4574L19.9743 15.5185C20.5869 15.7227 21 16.2959 21 16.9415V19.5066C21 20.335 20.3284 21.0066 19.5 21.0066H17.5C9.49187 21.0066 3 14.5147 3 6.50658Z" fill="black"/>
</svg>
