<svg width="24" height="24" viewBox="0 0 24 24" fill="none" xmlns="http://www.w3.org/2000/svg">
<path fill-rule="evenodd" clip-rule="evenodd" d="M20 16V8C20.5523 8 21 7.55228 21 7V6C21 5.44772 20.5523 5 20 5H19C18.4754 5 18.0452 5.40392 18.0033 5.91771L6 4.07104V4C6 3.44772 5.55228 3 5 3H4C3.44772 3 3 3.44772 3 4V5C3 5.55228 3.44772 6 4 6V18C3.44772 18 3 18.4477 3 19V20C3 20.5523 3.44772 21 4 21H5C5.55228 21 6 20.5523 6 20V19.929L18.0033 18.0823C18.0452 18.5961 18.4754 19 19 19H20C20.5523 19 21 18.5523 21 18V17C21 16.4477 20.5523 16 20 16ZM18 7C18 7.55228 18.4477 8 19 8V16C18.4477 16 18 16.4477 18 17V17.071L5.99666 18.9177C5.95481 18.4039 5.52458 18 5 18V6C5.52458 6 5.95481 5.59608 5.99666 5.08229L18 6.92896V7ZM5 19.491V19H4V20H5V19.5078V19.491ZM19 18V17.509V17.4922V17H20V18H19ZM5 4.49224V4H4V5H5V4.509V4.49224ZM19 7V6.50776V6.491V6H20V7H19Z" fill="black"/>
</svg>
