<svg width="24" height="24" viewBox="0 0 24 24" fill="none" xmlns="http://www.w3.org/2000/svg">
<path d="M3.68764 9.06849C4.31391 6.39859 6.39859 4.31391 9.06849 3.68764V3.68764C10.9967 3.23535 13.0033 3.23535 14.9315 3.68764V3.68764C17.6014 4.31391 19.6861 6.39859 20.3124 9.0685V9.0685C20.7646 10.9967 20.7646 13.0033 20.3124 14.9315V14.9315C19.6861 17.6014 17.6014 19.6861 14.9315 20.3124V20.3124C13.0033 20.7646 10.9967 20.7646 9.0685 20.3124V20.3124C6.3986 19.6861 4.31391 17.6014 3.68764 14.9315V14.9315C3.23535 13.0033 3.23535 10.9967 3.68764 9.06849V9.06849Z" stroke="#363853" stroke-width="1.5"/>
<path d="M11 9.5H13C13.8284 9.5 14.5 10.1716 14.5 11V13C14.5 13.8284 13.8284 14.5 13 14.5H11C10.1716 14.5 9.5 13.8284 9.5 13V11C9.5 10.1716 10.1716 9.5 11 9.5Z" fill="#363853" stroke="#363853"/>
</svg>
