<svg xmlns="http://www.w3.org/2000/svg" xmlns:xlink="http://www.w3.org/1999/xlink" width="48" zoomAndPan="magnify" viewBox="0 0 36 36.000001" height="48" preserveAspectRatio="xMidYMid meet" version="1.0"><defs><clipPath id="615c26358a"><path d="M 0.488281 0 L 35.511719 0 L 35.511719 35.027344 L 0.488281 35.027344 Z M 0.488281 0 " clip-rule="nonzero"/></clipPath></defs><g clip-path="url(#615c26358a)"><path stroke-linecap="round" transform="matrix(1.459459, 0, 0, 1.459459, 0.486486, 0.00000194595)" fill="none" stroke-linejoin="miter" d="M 8.879196 15.119574 L 8.879196 10.960285 M 15.120805 15.119574 L 15.120805 11.998769 M 12.000001 14.08109 L 12.000001 8.877965 M 3.352214 15.049984 C 2.881149 13.042606 2.881149 10.957609 3.352214 8.95023 C 4.005281 6.172018 6.17325 4.00405 8.951462 3.353659 C 10.956164 2.882594 13.043837 2.882594 15.048539 3.353659 C 17.826751 4.00405 19.99472 6.172018 20.647787 8.95023 C 21.118852 10.957609 21.118852 13.042606 20.647787 15.049984 C 19.99472 17.828196 17.826751 19.996165 15.048539 20.646556 C 13.043837 21.11762 10.956164 21.11762 8.951462 20.646556 C 6.17325 19.996165 4.005281 17.828196 3.352214 15.049984 Z M 3.352214 15.049984 " stroke="#363853" stroke-width="1.5" stroke-opacity="1" stroke-miterlimit="4"/><path stroke-linecap="round" transform="matrix(0.513176, -0.513176, 0.515997, 0.515997, 3.214239, 30.74803)" fill="none" stroke-linejoin="miter" d="M 1.498217 1.501414 L 52.806347 1.497629 " stroke="#363853" stroke-width="3" stroke-opacity="1" stroke-miterlimit="4"/></g></svg>