<svg width="24" height="24" viewBox="0 0 24 24" fill="none" xmlns="http://www.w3.org/2000/svg">
<path fill-rule="evenodd" clip-rule="evenodd" d="M3.81349 13.3862L7.86872 11.2988C7.95611 11.2587 8.03291 11.1931 8.08674 11.1048C8.23054 10.8691 8.15601 10.5614 7.92027 10.4176C6.7368 9.69567 6 8.41171 6 7C6 4.79086 7.79086 3 10 3C11.3419 3 12.5704 3.66515 13.3109 4.75466C13.4661 4.98305 13.7771 5.04236 14.0055 4.88714C14.2339 4.73191 14.2932 4.42094 14.138 4.19255C13.2132 2.83195 11.6766 2 10 2C7.23858 2 5 4.23858 5 7C5 8.47231 5.64187 9.83429 6.71356 10.7687L3.35581 12.4971C2.52326 12.9257 2 13.7835 2 14.7199V15.5C2 16.8807 3.1193 18 4.50007 18C4.77621 18 5.00007 17.7761 5.00007 17.5C5.00007 17.2239 4.77621 17 4.50007 17C3.67158 17 3 16.3284 3 15.5V14.7199C3 14.1581 3.31396 13.6434 3.81349 13.3862ZM7.8793 17.4223L11.9613 15.5668C12.5839 15.8452 13.2739 16 14 16C14.7261 16 15.4161 15.8452 16.0387 15.5668L20.1207 17.4223C20.6562 17.6657 21 18.1996 21 18.7878V19.5C21 20.3284 20.3284 21 19.5 21H8.5C7.67157 21 7 20.3284 7 19.5V18.7878C7 18.1996 7.3438 17.6657 7.8793 17.4223ZM10.9222 14.9407C9.75209 14.0255 9 12.6006 9 11C9 8.23858 11.2386 6 14 6C16.7614 6 19 8.23858 19 11C19 12.6006 18.2479 14.0255 17.0778 14.9407L20.5345 16.5119C21.427 16.9176 22 17.8075 22 18.7878V19.5C22 20.8807 20.8807 22 19.5 22H8.5C7.11929 22 6 20.8807 6 19.5V18.7878C6 17.8075 6.57301 16.9176 7.46549 16.5119L10.9222 14.9407ZM18 11C18 13.2091 16.2091 15 14 15C11.7909 15 10 13.2091 10 11C10 8.79086 11.7909 7 14 7C16.2091 7 18 8.79086 18 11Z" fill="black"/>
</svg>
